# ProBuilder 4.5.2
# https://unity3d.com/unity/features/worldbuilding/probuilder
# 25/08/2021 12:43:02 p. m.

mtllib ./Pipe.mtl
o Pipe

g Pipe
v 0.5 0 0.8660254
v 0 0 0
v 0.5 0.06177139 0.8660259
v 0 0.06177139 0
v 1.5 0 0.8660254
v 1.5 0.06177139 0.866025
v 2 0 -8.742278E-08
v 2 0.06177139 0
v 1.5 0 -0.8660254
v 1.5 0.06177139 -0.8660259
v 0.5000001 0 -0.8660254
v 0.5 0.06177139 -0.8660259
v 1 0 -1.986822E-08

vt 1 4.982126E-15
vt 0 0
vt 1 0.06177139
vt 0 0.06177139
vt 1.5 -5.849536E-06
vt 0.4999999 -5.849536E-06
vt 1.5 0.06176554
vt 0.4999999 0.06176554
vt -1 9.579952E-06
vt -1 0.06178097
vt -0.5000001 6.685184E-06
vt -1.5 6.685184E-06
vt -0.5 0.06177808
vt -1.5 0.06177808
vt 0.5 0.8660254
vt 1.5 0.8660254
vt 2 -8.742278E-08
vt 1.5 -0.8660254
vt 0.5000001 -0.8660254
vt -0.5 0.8660259
vt -1.5 0.866025
vt -2 0
vt -1.5 -0.8660259
vt -0.5 -0.8660259

vn -0.8660254 -3.859692E-06 0.5
vn -0.8660255 -1.929846E-06 0.4999999
vn 5.960464E-08 6.754462E-06 1
vn 0.8660254 -7.076316E-07 0.5
vn 0.8660253 -5.530989E-06 -0.5000001
vn 0.8660254 -2.411679E-06 -0.4999999
vn 0 -7.719385E-06 -1
vn -0.8660254 0 -0.5000001
vn -0.8660254 -2.765493E-06 -0.4999999
vn 0 -1 0
vn 0 1 0

usemtl ProBuilderDefault
f 13/1/10 1/15/10 2/2/10
f 13/1/10 5/16/10 1/15/10
f 13/1/10 7/17/10 5/16/10
f 13/1/10 9/18/10 7/17/10
f 13/1/10 11/19/10 9/18/10
f 13/1/10 2/2/10 11/19/10
f 3/20/11 6/21/11 4/2/11
f 4/2/11 6/21/11 12/24/11
f 6/21/11 10/23/11 12/24/11
f 6/21/11 8/22/11 10/23/11
f 4/4/2 2/2/2 1/1/1
f 1/1/1 3/3/2 4/4/2
f 3/8/3 1/6/3 5/5/3
f 5/5/3 6/7/3 3/8/3
f 6/4/4 5/2/4 7/1/4
f 7/1/4 8/3/4 6/4/4
f 8/10/6 7/9/6 9/2/5
f 9/2/5 10/4/6 8/10/6
f 10/14/7 9/12/7 11/11/7
f 11/11/7 12/13/7 10/14/7
f 12/10/9 11/9/9 2/2/8
f 2/2/8 4/4/9 12/10/9

